<?xml version="1.0" standalone="no"?>
<!DOCTYPE svg PUBLIC "-//W3C//DTD SVG 20010904//EN"
 "http://www.w3.org/TR/2001/REC-SVG-20010904/DTD/svg10.dtd">
<svg version="1.0" xmlns="http://www.w3.org/2000/svg"
 width="3202.000000pt" height="3202.000000pt" viewBox="0 0 3202.000000 3202.000000"
 preserveAspectRatio="xMidYMid meet">
<metadata>
Created by potrace 1.14, written by Peter Selinger 2001-2017
</metadata>
<g transform="translate(0.000000,3202.000000) scale(0.100000,-0.100000)"
fill="#000000" stroke="none">
<path d="M15488 32015 c-2 -1 -68 -6 -148 -9 -80 -4 -161 -9 -180 -11 -19 -2
-73 -6 -120 -10 -47 -3 -98 -8 -115 -11 -16 -2 -56 -6 -88 -9 -31 -2 -67 -7
-80 -9 -12 -3 -47 -8 -77 -11 -30 -3 -66 -7 -80 -10 -14 -2 -43 -6 -65 -10
-45 -6 -155 -23 -200 -31 -16 -3 -37 -7 -45 -9 -8 -2 -35 -7 -60 -10 -25 -4
-76 -13 -115 -21 -82 -18 -100 -22 -140 -29 -16 -4 -68 -15 -115 -27 -47 -11
-92 -21 -100 -23 -260 -54 -948 -275 -1185 -379 -27 -13 -66 -28 -85 -36 -200
-76 -857 -398 -962 -471 -14 -11 -29 -19 -32 -19 -13 0 -382 -229 -526 -328
-485 -329 -898 -671 -1294 -1068 -112 -112 -256 -265 -316 -334 -30 -35 -64
-73 -75 -84 -26 -27 -222 -263 -255 -306 -14 -18 -30 -38 -36 -44 -20 -22
-242 -323 -320 -436 -106 -153 -234 -353 -301 -467 -71 -123 -177 -309 -208
-368 -20 -38 -42 -76 -47 -82 -6 -7 -7 -13 -3 -13 4 0 2 -7 -5 -15 -12 -15
-70 -130 -157 -315 -47 -99 -193 -437 -193 -447 0 -3 -7 -19 -15 -36 -53 -115
-212 -590 -279 -832 -24 -86 -85 -324 -91 -355 -2 -8 -17 -78 -33 -155 -34
-155 -62 -297 -67 -335 -2 -14 -6 -38 -9 -55 -24 -148 -36 -229 -41 -280 -4
-33 -8 -67 -10 -75 -2 -8 -7 -46 -11 -85 -3 -38 -8 -78 -10 -88 -2 -10 -6 -57
-9 -104 -4 -48 -8 -94 -10 -104 -2 -9 -7 -79 -10 -156 -4 -76 -9 -158 -11
-183 -4 -59 -4 -662 0 -720 2 -25 7 -108 11 -185 4 -76 8 -147 10 -157 2 -10
7 -54 10 -98 4 -44 8 -95 10 -113 3 -17 7 -54 10 -82 7 -61 22 -177 30 -225 2
-19 10 -66 15 -105 6 -38 13 -83 15 -100 3 -16 7 -41 10 -55 2 -14 7 -38 10
-55 3 -16 7 -41 10 -55 3 -14 8 -41 11 -60 4 -19 9 -44 11 -55 2 -11 6 -30 9
-42 2 -13 6 -33 9 -45 3 -13 9 -44 14 -70 6 -26 18 -76 27 -110 9 -35 18 -72
20 -82 3 -17 21 -87 57 -226 8 -30 25 -88 37 -127 12 -40 22 -76 23 -80 0 -5
36 -114 79 -243 73 -216 213 -584 272 -712 14 -29 54 -118 91 -198 67 -146
202 -410 270 -530 21 -36 50 -87 65 -115 124 -226 372 -605 578 -880 114 -151
122 -161 293 -370 63 -77 151 -189 194 -250 44 -60 83 -114 87 -120 5 -5 31
-39 59 -75 87 -112 169 -208 301 -356 33 -36 221 -227 1003 -1019 315 -319
666 -674 780 -790 114 -115 465 -471 780 -790 315 -319 659 -668 765 -775 106
-107 448 -454 760 -770 312 -316 650 -659 751 -761 101 -103 428 -434 725
-735 298 -302 626 -634 729 -739 103 -104 422 -428 710 -720 288 -291 600
-609 695 -705 95 -96 403 -409 685 -695 282 -286 581 -590 665 -675 84 -85
345 -351 580 -590 542 -551 660 -673 660 -681 0 -3 -64 -25 -142 -48 -79 -24
-154 -47 -168 -51 -22 -8 -141 -37 -285 -70 -27 -7 -65 -14 -84 -16 -19 -3
-37 -7 -41 -9 -4 -3 -25 -7 -46 -10 -22 -3 -61 -10 -89 -15 -27 -5 -72 -12
-100 -15 -27 -4 -57 -8 -65 -10 -8 -2 -42 -7 -75 -10 -33 -4 -71 -8 -85 -10
-14 -2 -56 -7 -95 -10 -38 -3 -86 -8 -105 -10 -55 -7 -354 -18 -475 -18 -110
0 -419 12 -485 18 -19 2 -73 6 -120 10 -47 3 -96 8 -110 10 -14 2 -56 6 -95
10 -38 4 -79 9 -90 11 -11 3 -38 6 -60 9 -45 5 -108 14 -145 20 -14 3 -40 7
-57 10 -18 3 -48 7 -65 10 -18 3 -44 8 -58 10 -42 9 -72 14 -135 26 -33 6 -97
19 -142 29 -44 11 -94 22 -110 25 -52 9 -387 96 -526 136 -127 37 -367 96
-462 114 -22 5 -47 10 -55 11 -8 2 -31 6 -50 9 -19 2 -46 7 -60 10 -13 2 -41
7 -62 10 -21 3 -56 7 -78 10 -171 24 -275 30 -505 30 -226 0 -328 -6 -480 -30
-38 -6 -60 -9 -115 -20 -14 -3 -37 -7 -51 -10 -118 -22 -348 -95 -499 -160
-576 -246 -1081 -749 -1411 -1405 -168 -335 -292 -733 -334 -1075 -3 -27 -8
-66 -10 -85 -26 -197 -26 -577 1 -795 14 -114 47 -297 70 -392 14 -60 27 -115
29 -123 2 -8 4 -15 5 -15 1 0 3 -10 6 -23 5 -29 67 -216 100 -302 45 -116 97
-233 152 -340 30 -58 61 -118 70 -135 15 -29 28 -50 123 -199 38 -61 114 -168
152 -216 7 -9 30 -38 51 -65 290 -365 676 -678 1116 -904 244 -125 701 -296
873 -327 17 -2 34 -7 39 -10 5 -3 21 -8 36 -10 15 -3 52 -11 82 -19 30 -8 71
-17 90 -20 19 -3 51 -10 70 -15 19 -5 53 -11 75 -15 22 -3 65 -10 95 -15 59
-10 109 -17 180 -25 25 -3 61 -7 80 -10 73 -9 262 -25 364 -31 95 -5 574 -5
661 0 199 12 283 18 305 21 14 2 61 7 105 11 44 3 94 8 110 9 39 4 123 15 155
20 14 3 48 7 75 10 28 4 57 8 65 10 8 2 40 7 70 10 30 4 73 10 95 15 22 5 60
12 85 15 25 4 122 22 215 41 94 20 184 37 200 40 17 3 66 15 110 26 44 11 88
22 98 24 10 2 27 6 37 9 17 6 36 10 86 20 138 29 723 215 892 284 26 10 106
43 177 71 72 29 148 60 170 70 22 10 74 33 115 51 262 116 663 331 943 506
230 143 589 396 732 515 11 9 40 33 65 53 339 275 667 588 961 916 153 170
251 289 432 519 127 162 414 571 492 702 9 15 198 330 230 383 13 21 60 106
133 240 114 211 296 593 401 844 240 573 405 1104 456 1471 3 25 8 52 10 60 2
8 7 33 10 55 3 23 7 50 9 60 3 18 10 62 22 138 2 15 6 39 8 55 7 44 15 104 21
150 3 23 7 59 10 80 13 103 25 215 30 282 3 41 8 86 10 100 4 24 11 121 20
290 21 382 21 910 0 1180 -2 19 -6 82 -9 140 -4 58 -9 116 -11 130 -2 14 -6
59 -10 100 -4 41 -8 86 -10 100 -2 14 -7 50 -10 80 -3 30 -8 66 -10 80 -2 14
-7 50 -10 80 -3 30 -8 62 -10 70 -2 8 -6 35 -9 60 -3 25 -8 56 -11 70 -3 14
-7 39 -10 57 -6 49 -24 149 -41 233 -9 41 -18 86 -20 100 -6 33 -65 291 -88
385 -104 417 -258 872 -438 1295 -80 189 -289 618 -372 763 -31 54 -56 100
-56 103 0 19 -406 656 -464 729 -9 11 -44 58 -78 105 -61 84 -266 350 -277
360 -4 3 -19 21 -35 40 -120 146 -311 353 -480 520 -81 80 -486 483 -900 895
-728 725 -2616 2602 -3399 3379 -719 713 -2632 2613 -3293 3272 -364 363 -691
697 -728 744 -218 279 -383 606 -430 855 -19 101 -15 313 8 408 52 214 145
389 287 537 233 245 282 288 452 391 164 101 509 253 619 273 106 19 406 -2
508 -36 8 -3 47 -15 86 -27 162 -49 367 -170 500 -296 72 -69 330 -313 368
-349 36 -33 99 -93 381 -361 29 -27 117 -111 195 -185 78 -74 163 -155 189
-179 48 -45 293 -277 366 -346 125 -119 341 -324 369 -349 17 -16 79 -75 137
-130 229 -218 406 -386 449 -426 25 -23 112 -106 194 -183 82 -78 172 -164
200 -190 143 -136 325 -308 356 -337 19 -18 109 -103 200 -190 91 -87 181
-172 200 -190 19 -18 102 -96 184 -174 82 -77 170 -161 196 -186 26 -25 114
-109 196 -186 82 -78 165 -156 184 -174 19 -18 109 -103 200 -189 91 -87 179
-171 196 -187 18 -16 99 -92 180 -170 82 -77 169 -160 194 -183 25 -23 115
-109 200 -190 213 -203 329 -312 383 -357 269 -230 672 -433 992 -499 11 -3
40 -9 65 -14 63 -14 117 -22 270 -39 111 -12 423 -4 490 13 8 2 35 6 60 9 51
7 84 13 108 20 9 3 28 7 42 10 44 7 153 37 250 68 381 121 752 329 1061 594
24 21 272 266 550 544 531 530 650 664 795 890 226 355 380 737 458 1135 16
83 20 107 32 190 3 28 8 59 10 69 17 93 23 483 11 626 -11 112 -18 182 -23
210 -46 275 -103 503 -164 655 -4 11 -18 47 -31 80 -67 179 -247 515 -354 660
-24 33 -59 80 -77 105 -18 25 -35 47 -38 50 -3 3 -25 30 -50 60 -25 30 -61 72
-80 94 -19 21 -1029 1032 -2243 2247 -1303 1303 -2254 2247 -2320 2302 -134
111 -203 165 -362 284 -111 83 -474 333 -520 359 -11 6 -94 56 -185 111 -158
96 -190 115 -325 188 -512 279 -1105 524 -1685 695 -103 30 -358 99 -393 106
-10 2 -26 5 -35 8 -9 3 -28 7 -42 10 -14 2 -43 9 -65 14 -22 6 -51 13 -65 16
-14 2 -61 12 -105 21 -83 16 -295 55 -330 60 -44 6 -102 16 -121 19 -12 2 -45
7 -75 11 -30 3 -61 8 -69 10 -8 2 -44 6 -80 10 -36 3 -75 7 -85 9 -11 2 -58 7
-105 11 -47 4 -92 9 -101 10 -9 2 -67 6 -130 10 -63 4 -130 9 -149 11 -40 4
-808 13 -812 9z"/>
<path d="M8578 12015 c-2 -1 -59 -6 -128 -9 -69 -4 -141 -9 -160 -11 -116 -14
-136 -17 -220 -31 -19 -3 -46 -8 -60 -10 -40 -7 -119 -25 -200 -46 -41 -11
-79 -21 -85 -22 -106 -23 -366 -123 -555 -214 -365 -175 -781 -495 -1040 -802
-30 -36 -58 -67 -61 -70 -14 -11 -140 -181 -196 -265 -275 -410 -461 -895
-528 -1377 -3 -21 -7 -53 -10 -71 -13 -94 -19 -223 -19 -412 0 -224 4 -286 34
-490 29 -201 64 -347 131 -546 249 -748 731 -1356 1419 -1791 95 -60 277 -156
383 -202 20 -9 53 -23 73 -32 45 -20 193 -74 219 -81 11 -2 29 -9 40 -13 76
-33 417 -112 540 -126 22 -2 49 -6 61 -9 117 -27 676 -27 845 0 13 2 42 6 64
9 22 3 49 7 60 10 11 2 40 7 65 12 25 4 47 8 50 9 3 0 23 5 45 9 22 5 47 10
55 11 77 10 430 128 578 194 235 104 531 281 706 421 156 125 373 332 476 455
23 28 52 61 64 75 171 200 372 540 492 830 89 218 183 550 209 740 31 236 38
333 39 525 0 134 -9 324 -18 372 -4 18 -13 91 -21 150 -3 29 -27 153 -41 213
-3 14 -8 36 -11 50 -9 43 -63 234 -73 255 -5 11 -12 31 -16 45 -30 111 -180
439 -267 585 -27 44 -54 89 -60 100 -21 35 -140 210 -147 215 -3 3 -19 23 -35
45 -93 126 -288 335 -434 465 -218 192 -475 365 -736 493 -76 37 -133 61 -320
138 -101 41 -391 121 -515 143 -14 2 -41 7 -60 10 -69 12 -96 16 -150 22 -30
3 -66 8 -80 10 -14 3 -101 7 -195 10 -93 3 -178 7 -187 8 -9 2 -18 3 -20 1z"/>
</g>
</svg>
